<?xml version="1.0" encoding="utf-8"?>
<!-- Generator: Adobe Illustrator 27.8.1, SVG Export Plug-In . SVG Version: 6.00 Build 0)  -->
<svg version="1.1" id="EGS-Logotype-2023-Vertical-White"
	 xmlns="http://www.w3.org/2000/svg" xmlns:xlink="http://www.w3.org/1999/xlink" x="0px" y="0px" viewBox="0 0 376.35 613.31"
	 style="enable-background:new 0 0 376.35 613.31;" xml:space="preserve">
<style type="text/css">
	.st0{fill:#FFFFFF;}
</style>
<g>
	<path class="st0" d="M84.19,560.69c-1.36-2.36-3.15-4.33-5.36-5.89c-2.21-1.56-5.03-3.04-8.46-4.45l-13.44-5.44
		c-1.51-0.6-2.77-1.23-3.77-1.89c-1.01-0.65-1.76-1.38-2.26-2.19c-0.5-0.8-0.86-1.79-1.06-2.94c-0.2-1.16-0.3-2.59-0.3-4.3
		c0-3.52,0.6-6.09,1.81-7.7c0.6-0.8,1.41-1.48,2.42-2.04c1.01-0.55,2.27-0.83,3.78-0.83c1.61,0,2.89,0.25,3.85,0.75
		c0.96,0.5,1.74,1.16,2.34,1.96c0.91,1.21,1.43,2.64,1.58,4.3c0.15,1.66,0.23,3.45,0.23,5.36h21.44c0-5.44-0.66-10.27-1.96-14.5
		c-1.31-4.23-3.42-7.7-6.34-10.42c-4.83-4.53-11.88-6.79-21.14-6.79c-4.13,0-7.8,0.58-11.02,1.74c-3.22,1.16-6.14,2.85-8.76,5.06
		c-3.22,2.82-5.64,6.24-7.25,10.27c-1.61,4.03-2.42,8.56-2.42,13.59c0,4.23,0.3,7.8,0.91,10.72c0.6,2.92,1.51,5.39,2.72,7.4
		c1.21,2.01,2.79,3.72,4.76,5.13c1.96,1.41,4.3,2.67,7.02,3.78l13.59,5.59c1.91,0.81,3.47,1.56,4.68,2.27
		c1.21,0.71,2.16,1.58,2.87,2.64c0.7,1.06,1.18,2.42,1.44,4.08c0.25,1.66,0.38,3.75,0.38,6.27c0,4.33-0.71,7.35-2.11,9.06
		c-1.41,1.81-3.68,2.72-6.79,2.72c-1.71,0-3.1-0.25-4.15-0.75c-1.06-0.5-1.89-1.11-2.49-1.81c-1.01-1.11-1.64-2.47-1.89-4.08
		c-0.25-1.61-0.38-3.52-0.38-5.74H27.19c0,5.54,0.53,10.24,1.59,14.12c1.06,3.88,2.89,7.12,5.51,9.74c2.42,2.42,5.56,4.33,9.44,5.74
		c3.88,1.41,8.48,2.11,13.82,2.11c5.23,0,9.84-0.75,13.82-2.26c3.98-1.51,7.17-3.42,9.59-5.74c2.82-2.72,4.68-6.01,5.59-9.89
		c0.91-3.87,1.36-8.53,1.36-13.97c0-4.83-0.28-8.91-0.83-12.23C86.5,565.9,85.55,563.06,84.19,560.69z"/>
	<polygon class="st0" points="92.26,523.92 110.38,523.92 110.38,612.1 131.82,612.1 131.82,523.92 149.94,523.92 149.94,504.6 
		92.26,504.6 	"/>
	<path class="st0" d="M215.77,532c-0.5-3.67-1.28-6.97-2.34-9.89c-1.06-2.92-2.54-5.53-4.45-7.85c-2.42-3.02-5.49-5.59-9.21-7.7
		c-3.73-2.11-8.51-3.17-14.34-3.17c-5.84,0-10.62,1.06-14.34,3.17c-3.73,2.11-6.79,4.68-9.21,7.7c-1.91,2.32-3.4,4.93-4.46,7.85
		c-1.06,2.92-1.86,6.22-2.42,9.89c-0.55,3.68-0.88,7.7-0.98,12.08c-0.1,4.38-0.15,9.14-0.15,14.27c0,5.13,0.05,9.89,0.15,14.27
		c0.1,4.38,0.43,8.41,0.98,12.08c0.55,3.67,1.36,6.97,2.42,9.89c1.06,2.92,2.54,5.54,4.46,7.85c2.42,3.02,5.48,5.59,9.21,7.7
		c3.72,2.11,8.5,3.17,14.34,3.17c5.84,0,10.62-1.06,14.34-3.17c3.72-2.11,6.79-4.68,9.21-7.7c1.91-2.31,3.4-4.93,4.45-7.85
		c1.06-2.92,1.84-6.21,2.34-9.89c0.5-3.67,0.83-7.7,0.98-12.08c0.15-4.38,0.23-9.13,0.23-14.27c0-5.13-0.08-9.89-0.23-14.27
		C216.6,539.7,216.28,535.68,215.77,532z M195.47,568.01c-0.05,3.22-0.18,6.24-0.38,9.06c-0.2,2.82-0.5,5.34-0.91,7.55
		c-0.4,2.22-0.91,3.93-1.51,5.13c-0.6,1.21-1.46,2.22-2.57,3.02c-1.11,0.81-2.67,1.21-4.68,1.21c-2.01,0-3.57-0.4-4.68-1.21
		c-1.11-0.8-1.96-1.81-2.57-3.02c-0.6-1.21-1.11-2.92-1.51-5.13c-0.4-2.21-0.71-4.73-0.91-7.55c-0.2-2.82-0.33-5.84-0.38-9.06
		c-0.05-3.22-0.08-6.44-0.08-9.66c0-3.22,0.02-6.44,0.08-9.66c0.05-3.22,0.17-6.24,0.38-9.06c0.2-2.82,0.5-5.33,0.91-7.55
		c0.4-2.21,0.91-3.93,1.51-5.13c0.6-1.21,1.46-2.21,2.57-3.02c1.11-0.8,2.67-1.21,4.68-1.21c2.01,0,3.57,0.4,4.68,1.21
		c1.11,0.81,1.96,1.81,2.57,3.02c0.6,1.21,1.11,2.92,1.51,5.13c0.4,2.21,0.7,4.73,0.91,7.55c0.2,2.82,0.33,5.84,0.38,9.06
		c0.05,3.22,0.08,6.44,0.08,9.66C195.54,561.57,195.52,564.79,195.47,568.01z"/>
	<path class="st0" d="M281.73,560.09c1.61-2.06,2.84-4.3,3.7-6.72c0.85-2.42,1.43-4.96,1.74-7.62c0.3-2.67,0.45-5.46,0.45-8.38
		c0-5.13-0.45-9.74-1.36-13.82c-0.91-4.08-2.49-7.5-4.76-10.27c-2.26-2.77-5.34-4.91-9.21-6.42c-3.88-1.51-8.73-2.26-14.57-2.26
		h-30.65v107.5h21.44v-41.82h7.1l13.14,41.82h22.35l-15.7-46.5C278,563.99,280.11,562.15,281.73,560.09z M265.95,542.04
		c-0.15,1.61-0.51,3.07-1.06,4.38c-0.55,1.31-1.41,2.39-2.57,3.25c-1.16,0.86-2.74,1.28-4.76,1.28h-9.06v-27.03h9.06
		c2.01,0,3.6,0.4,4.76,1.21c1.16,0.81,2.01,1.86,2.57,3.17c0.55,1.31,0.91,2.77,1.06,4.38c0.15,1.61,0.23,3.17,0.23,4.68
		S266.1,540.43,265.95,542.04z"/>
	<polygon class="st0" points="299.63,612.1 349.16,612.1 349.16,592.78 321.07,592.78 321.07,567.11 345.23,567.11 345.23,547.78 
		321.07,547.78 321.07,523.92 349.16,523.92 349.16,504.6 299.63,504.6 	"/>
	<path class="st0" d="M170.46,128.53v-41.9c0-6.67-3.13-9.76-9.62-9.76h-10.58v61.42h10.58
		C167.34,138.29,170.46,135.2,170.46,128.53z"/>
	<polygon class="st0" points="136.1,277.2 130.34,291.56 141.8,291.56 	"/>
	<path class="st0" d="M341.93,0H34.42C9.2,0,0,9.17,0,34.02v302.9c0,3.9,0.7,10.91,1.97,13.91c1.27,3,2.45,5.46,4.8,7.65
		c2.43,2.26,6.63,4.61,8.65,5.53l163.01,68.59c3,1.27,6.29,1.97,9.74,1.97c3.46,0,6.75-0.7,9.74-1.97L360.93,364
		c2.02-0.92,6.22-3.27,8.65-5.53c2.35-2.19,3.53-4.65,4.8-7.65c1.27-3,1.97-10.01,1.97-13.91V34.02C376.35,9.17,367.15,0,341.93,0z
		 M207.81,54.5h25.74v166.63h-25.74V54.5z M209.14,260.97h14.96v50.5h-14.09v-29.01l-13.07,19.77h-0.29l-13-19.62v28.86h-13.87
		v-50.5h14.96l12.19,19.55L209.14,260.97z M124.52,54.5h40.41c20.93,0,31.27,10.23,31.27,30.95v44.28
		c0,20.71-10.34,30.94-31.27,30.94h-14.67v60.46h-25.74V54.5z M54.36,54.5h57.25v23.09H80.1v47.14h30.3v23.09H80.1v50.23h31.99
		v23.09H54.36V54.5z M103.13,304.74c-2.73,2.21-5.94,4.07-9.64,5.56c-3.7,1.49-7.88,2.24-12.56,2.24c-3.99,0-7.68-0.65-11.06-1.95
		c-3.39-1.3-6.31-3.1-8.8-5.41c-2.48-2.31-4.43-5.06-5.84-8.26c-1.41-3.19-2.11-6.7-2.11-10.49v-0.15c0-3.7,0.69-7.15,2.08-10.32
		c1.39-3.17,3.3-5.95,5.73-8.33c2.44-2.38,5.34-4.24,8.72-5.59c3.38-1.34,7.04-2.02,10.98-2.02c4.53,0,8.43,0.65,11.72,1.95
		c3.28,1.3,6.29,3.1,9.02,5.41l-8.32,9.88c-1.85-1.54-3.74-2.72-5.66-3.53c-1.92-0.82-4.15-1.23-6.68-1.23
		c-1.85,0-3.56,0.36-5.15,1.08c-1.58,0.72-2.95,1.71-4.12,2.96c-1.17,1.25-2.09,2.72-2.77,4.4c-0.68,1.68-1.02,3.49-1.02,5.41v0.15
		c0,2.02,0.34,3.9,1.02,5.62c0.68,1.73,1.65,3.21,2.88,4.44c1.24,1.23,2.7,2.19,4.38,2.89c1.68,0.69,3.54,1.05,5.59,1.05
		c3.31,0,6.03-0.69,8.18-2.09v-6.13H79.63V282h23.5V304.74z M107.63,311.47l21.77-50.87h13.65l21.76,50.87h-15.18l-3.73-9.02h-19.71
		l-3.65,9.02H107.63z M250.3,367.36c-0.07,0.16-0.17,0.3-0.29,0.42c-0.12,0.12-0.26,0.22-0.42,0.28l-59.48,25.03
		c-0.64,0.27-1.34,0.42-2.07,0.42c-0.73,0-1.43-0.15-2.07-0.42l-59.02-25.03c-0.16-0.07-0.3-0.17-0.42-0.28
		c-0.12-0.12-0.22-0.26-0.29-0.42c-0.07-0.16-0.1-0.33-0.1-0.52s0.04-0.36,0.1-0.52c0.07-0.16,0.17-0.3,0.29-0.42
		c0.12-0.12,0.26-0.22,0.42-0.29c0.16-0.07,0.33-0.1,0.52-0.1h121.6c0.18,0,0.36,0.04,0.52,0.1c0.16,0.07,0.3,0.16,0.42,0.29
		c0.12,0.12,0.22,0.26,0.29,0.42c0.07,0.16,0.1,0.33,0.1,0.52S250.36,367.2,250.3,367.36z M275.04,311.47h-41.47v-50.5h41.1v11.91
		h-27.09v7.65h24.53v11.04h-24.53v8.01h27.45V311.47z M247.15,191.61V84.01c0-20.71,10.35-30.95,31.27-30.95h12.51
		c20.93,0,31.03,10,31.03,30.71v34.04h-25.25V85.2c0-6.67-3.13-9.76-9.62-9.76h-4.33c-6.74,0-9.86,3.09-9.86,9.76v105.22
		c0,6.67,3.13,9.76,9.86,9.76h4.81c6.49,0,9.62-3.09,9.62-9.76v-37.61h25.26v38.8c0,20.71-10.34,30.95-31.27,30.95h-12.75
		C257.5,222.56,247.15,212.33,247.15,191.61z M323.42,295.93c0,2.6-0.5,4.91-1.5,6.93s-2.4,3.74-4.2,5.16
		c-1.8,1.42-3.96,2.5-6.5,3.25c-2.53,0.75-5.35,1.12-8.47,1.12c-4.58,0-8.92-0.69-13.03-2.09c-4.11-1.4-7.75-3.49-10.91-6.28
		l7.88-9.31c5.11,4.04,10.63,6.06,16.57,6.06c1.9,0,3.35-0.3,4.34-0.9c1-0.6,1.5-1.45,1.5-2.56v-0.15c0-0.53-0.13-1-0.37-1.4
		c-0.24-0.41-0.69-0.8-1.35-1.19s-1.54-0.76-2.62-1.12c-1.1-0.36-2.51-0.73-4.27-1.12c-2.73-0.63-5.26-1.31-7.59-2.05
		c-2.33-0.75-4.37-1.71-6.1-2.89c-1.73-1.18-3.09-2.65-4.09-4.4s-1.5-3.94-1.5-6.53v-0.15c0-2.35,0.45-4.52,1.35-6.5
		c0.9-1.98,2.22-3.68,3.94-5.12c1.72-1.44,3.81-2.56,6.24-3.36c2.44-0.79,5.19-1.19,8.25-1.19c4.38,0,8.29,0.56,11.72,1.7
		s6.53,2.8,9.31,5.02l-7.08,9.88c-2.33-1.64-4.73-2.87-7.19-3.72c-2.46-0.84-4.83-1.27-7.11-1.27c-1.7,0-2.99,0.32-3.83,0.94
		c-0.85,0.62-1.28,1.4-1.28,2.31v0.15c0,0.58,0.13,1.08,0.4,1.51c0.27,0.43,0.73,0.83,1.39,1.19c0.66,0.36,1.56,0.73,2.7,1.08
		c1.14,0.36,2.59,0.73,4.34,1.12c2.92,0.62,5.56,1.36,7.92,2.2c2.36,0.84,4.36,1.87,6.03,3.06c1.65,1.2,2.92,2.65,3.79,4.37
		c0.88,1.71,1.32,3.74,1.32,6.1V295.93z"/>
</g>
</svg>
